<svg width="24" height="24" viewBox="0 0 24 24" fill="none" xmlns="http://www.w3.org/2000/svg">
<path d="M5 23.7C4.45 23.7 3.979 23.504 3.587 23.112C3.19567 22.7207 3 22.25 3 21.7V7.7C3 7.15 3.19567 6.679 3.587 6.287C3.979 5.89567 4.45 5.7 5 5.7H13.925L11.925 7.7H5V21.7H19V14.75L21 12.75V21.7C21 22.25 20.8043 22.7207 20.413 23.112C20.021 23.504 19.55 23.7 19 23.7H5ZM16.175 6.275L17.6 7.675L11 14.275V15.7H12.4L19.025 9.075L20.45 10.475L13.825 17.1C13.6417 17.2833 13.4293 17.4293 13.188 17.538C12.946 17.646 12.6917 17.7 12.425 17.7H10C9.71667 17.7 9.47933 17.6043 9.288 17.413C9.096 17.221 9 16.9833 9 16.7V14.275C9 14.0083 9.05 13.754 9.15 13.512C9.25 13.2707 9.39167 13.0583 9.575 12.875L16.175 6.275ZM20.45 10.475L16.175 6.275L18.675 3.775C19.075 3.375 19.5543 3.175 20.113 3.175C20.671 3.175 21.1417 3.375 21.525 3.775L22.925 5.2C23.3083 5.58334 23.5 6.05 23.5 6.6C23.5 7.15 23.3083 7.61667 22.925 8L20.45 10.475Z" fill="#666666"/>
</svg>
