<svg width="24" height="24" viewBox="0 0 32 32" fill="none" xmlns="http://www.w3.org/2000/svg">
<path d="M27.71 4.29001C27.575 4.15569 27.4045 4.06268 27.2185 4.02194C27.0325 3.9812 26.8388 3.99441 26.66 4.06001L4.66 12.06C4.47027 12.132 4.30692 12.26 4.19165 12.427C4.07638 12.594 4.01465 12.7921 4.01465 12.995C4.01465 13.1979 4.07638 13.3961 4.19165 13.5631C4.30692 13.7301 4.47027 13.858 4.66 13.93L13.25 17.36L19.59 11L21 12.41L14.63 18.78L18.07 27.37C18.1441 27.5561 18.2724 27.7156 18.4382 27.8279C18.604 27.9403 18.7997 28.0002 19 28C19.2021 27.9959 19.3982 27.9306 19.5624 27.8128C19.7266 27.6949 19.8513 27.5301 19.92 27.34L27.92 5.34001C27.9881 5.16309 28.0046 4.97044 27.9674 4.78454C27.9302 4.59863 27.8409 4.42712 27.71 4.29001Z" fill="#666666"/>
</svg>
