<svg width="24" height="24" viewBox="0 0 256 256" fill="none" xmlns="http://www.w3.org/2000/svg">
<path d="M216 48H180V36C179.974 28.582 177.015 21.4754 171.77 16.2301C166.525 10.9848 159.418 8.02635 152 8H104C96.582 8.02635 89.4754 10.9848 84.2301 16.2301C78.9848 21.4754 76.0264 28.582 76 36V48H40C36.8174 48 33.7652 49.2643 31.5147 51.5147C29.2643 53.7652 28 56.8174 28 60C28 63.1826 29.2643 66.2348 31.5147 68.4853C33.7652 70.7357 36.8174 72 40 72H44V208C44.0263 213.296 46.1419 218.368 49.8869 222.113C53.632 225.858 58.7038 227.974 64 228H192C197.296 227.974 202.368 225.858 206.113 222.113C209.858 218.368 211.974 213.296 212 208V72H216C219.183 72 222.235 70.7357 224.485 68.4853C226.736 66.2348 228 63.1826 228 60C228 56.8174 226.736 53.7652 224.485 51.5147C222.235 49.2643 219.183 48 216 48ZM100 36C100 34.9391 100.421 33.9217 101.172 33.1716C101.922 32.4214 102.939 32 104 32H152C153.061 32 154.078 32.4214 154.828 33.1716C155.579 33.9217 156 34.9391 156 36V48H100V36ZM188 204H68V72H188V204ZM116 104V168C116 171.183 114.736 174.235 112.485 176.485C110.235 178.736 107.183 180 104 180C100.817 180 97.7652 178.736 95.5147 176.485C93.2643 174.235 92 171.183 92 168V104C92 100.817 93.2643 97.7652 95.5147 95.5147C97.7652 93.2643 100.817 92 104 92C107.183 92 110.235 93.2643 112.485 95.5147C114.736 97.7652 116 100.817 116 104ZM164 104V168C164 171.183 162.736 174.235 160.485 176.485C158.235 178.736 155.183 180 152 180C148.817 180 145.765 178.736 143.515 176.485C141.264 174.235 140 171.183 140 168V104C140 100.817 141.264 97.7652 143.515 95.5147C145.765 93.2643 148.817 92 152 92C155.183 92 158.235 93.2643 160.485 95.5147C162.736 97.7652 164 100.817 164 104Z" fill="#666666"/>
</svg>
